<?xml version="1.0" standalone="no"?><!DOCTYPE svg PUBLIC "-//W3C//DTD SVG 1.1//EN" "http://www.w3.org/Graphics/SVG/1.1/DTD/svg11.dtd"><svg t="1631888689736" class="icon" viewBox="0 0 1024 1024" version="1.1" xmlns="http://www.w3.org/2000/svg" p-id="7200" xmlns:xlink="http://www.w3.org/1999/xlink" width="14" height="14"><defs><style type="text/css"></style></defs><path d="M944 0H80C36 0 0 36 0 80v864c0 44 36 80 80 80h864c44 0 80-36 80-80V80c0-44-36-80-80-80z" p-id="7201"></path><path d="M900.2 871.7L180.7 512l719.5-359.6c10.5-5.3 14.8-18.1 9.6-28.6-5.3-10.5-18.1-14.8-28.6-9.6L123.6 492.9c-0.7 0.3-1.2 0.7-1.9 1l-0.1 0.1c-0.3 0.2-0.5 0.3-0.8 0.5-0.1 0.1-0.2 0.1-0.3 0.2-0.2 0.1-0.4 0.3-0.6 0.4-0.1 0.1-0.2 0.2-0.4 0.3-0.2 0.1-0.3 0.3-0.5 0.4-0.1 0.1-0.3 0.2-0.4 0.4l-0.4 0.4-0.4 0.4-0.4 0.4c-0.1 0.2-0.3 0.3-0.4 0.5l-0.3 0.3c-0.2 0.2-0.3 0.4-0.5 0.6-0.1 0.1-0.2 0.2-0.2 0.3-0.2 0.2-0.3 0.4-0.5 0.7l-0.2 0.2-0.6 0.9v0.1c-0.6 0.9-1 1.9-1.5 2.8-0.1 0.2-0.1 0.3-0.2 0.5s-0.1 0.3-0.2 0.5-0.2 0.5-0.3 0.7c0 0.1-0.1 0.2-0.1 0.3l-0.3 0.9v0.2c-0.1 0.3-0.2 0.6-0.2 0.9v0.1c-0.1 0.3-0.1 0.6-0.2 0.9v0.1c-0.1 0.3-0.1 0.6-0.1 0.9v0.2c0 0.3-0.1 0.5-0.1 0.8v4c0 0.3 0.1 0.5 0.1 0.8v0.2c0 0.3 0.1 0.6 0.1 0.9v0.1c0.1 0.3 0.1 0.6 0.2 0.9v0.1c0.1 0.3 0.1 0.6 0.2 0.9v0.2l0.3 0.9c0 0.1 0.1 0.2 0.1 0.3 0.1 0.2 0.2 0.5 0.3 0.7 0.1 0.2 0.1 0.3 0.2 0.5s0.1 0.3 0.2 0.5c0.3 0.8 0.7 1.5 1.1 2.2 0 0.1 0.1 0.2 0.1 0.2 0.5 0.8 1 1.5 1.6 2.3 0.1 0.1 0.1 0.2 0.2 0.3 0.3 0.3 0.5 0.6 0.8 0.9 0.1 0.1 0.1 0.1 0.1 0.2 0.3 0.3 0.6 0.7 0.9 0.9 0.1 0.1 0.2 0.2 0.3 0.2 0.3 0.2 0.5 0.5 0.8 0.7l0.3 0.3c0.3 0.3 0.7 0.6 1 0.8 0.1 0.1 0.2 0.1 0.2 0.2l0.9 0.6c0.1 0.1 0.3 0.2 0.4 0.3 0.3 0.2 0.5 0.3 0.8 0.4 0.1 0.1 0.3 0.2 0.4 0.2 0 0 0.1 0 0.1 0.1L881 909.7c3 1.5 6.3 2.3 9.5 2.3 7.9 0 15.3-4.4 19-11.7 5.5-10.6 1.2-23.4-9.3-28.6z" fill="#FFFFFF" p-id="7202"></path></svg>