<?xml version="1.0" standalone="no"?><!DOCTYPE svg PUBLIC "-//W3C//DTD SVG 1.1//EN" "http://www.w3.org/Graphics/SVG/1.1/DTD/svg11.dtd"><svg t="1630813417790" class="icon" viewBox="0 0 1024 1024" version="1.1" xmlns="http://www.w3.org/2000/svg" p-id="7814" xmlns:xlink="http://www.w3.org/1999/xlink" width="14" height="14"><defs><style type="text/css"></style></defs><path d="M978.66 923.1L854.33 798.76c65.22-77.75 104.5-178 104.5-287.42 0-247.15-200.35-447.5-447.5-447.5s-447.5 200.35-447.5 447.5 200.35 447.5 447.5 447.5c108.92 0 208.74-38.92 286.34-103.6L922.1 979.66c7.81 7.81 18.05 11.72 28.28 11.72s20.47-3.91 28.28-11.72c15.63-15.62 15.63-40.94 0-56.56z m-467.33-44.26c-49.65 0-97.77-9.71-143.02-28.85-43.75-18.51-83.06-45.01-116.84-78.79-33.78-33.78-60.29-73.09-78.79-116.84-19.14-45.26-28.85-93.38-28.85-143.02s9.71-97.77 28.85-143.02c18.51-43.75 45.01-83.06 78.79-116.84 33.78-33.78 73.09-60.29 116.84-78.79 45.26-19.14 93.38-28.85 143.02-28.85 49.65 0 97.77 9.71 143.02 28.85 43.75 18.51 83.06 45.01 116.84 78.79 33.78 33.78 60.29 73.09 78.79 116.84 19.14 45.26 28.85 93.38 28.85 143.02s-9.71 97.77-28.85 143.02c-18.51 43.75-45.01 83.06-78.79 116.84-33.78 33.78-73.09 60.29-116.84 78.79-45.25 19.14-93.37 28.85-143.02 28.85z" fill="#111111" p-id="7815"></path></svg>